<mxfile host="app.diagrams.net" modified="2022-02-18T02:43:10.947Z" agent="5.0 (Macintosh; Intel Mac OS X 10_15_7) AppleWebKit/605.1.15 (KHTML, like Gecko) Version/15.3 Safari/605.1.15" etag="MvQcO2oYI1K4czxcpDRF" version="16.6.1" type="github">
  <diagram id="C5RBs43oDa-KdzZeNtuy" name="Page-1">
    <mxGraphModel dx="1009" dy="719" grid="1" gridSize="10" guides="1" tooltips="1" connect="1" arrows="1" fold="1" page="1" pageScale="1" pageWidth="827" pageHeight="1169" math="0" shadow="0">
      <root>
        <mxCell id="WIyWlLk6GJQsqaUBKTNV-0" />
        <mxCell id="WIyWlLk6GJQsqaUBKTNV-1" parent="WIyWlLk6GJQsqaUBKTNV-0" />
        <mxCell id="lRI2vzpQ_FFEXAcsRBNS-16" style="edgeStyle=orthogonalEdgeStyle;rounded=0;orthogonalLoop=1;jettySize=auto;html=1;entryX=0.5;entryY=0;entryDx=0;entryDy=0;" edge="1" parent="WIyWlLk6GJQsqaUBKTNV-1" source="lRI2vzpQ_FFEXAcsRBNS-0" target="lRI2vzpQ_FFEXAcsRBNS-2">
          <mxGeometry relative="1" as="geometry" />
        </mxCell>
        <mxCell id="lRI2vzpQ_FFEXAcsRBNS-0" value="START" style="strokeWidth=2;html=1;shape=mxgraph.flowchart.start_1;whiteSpace=wrap;" vertex="1" parent="WIyWlLk6GJQsqaUBKTNV-1">
          <mxGeometry x="350" y="60" width="100" height="60" as="geometry" />
        </mxCell>
        <mxCell id="lRI2vzpQ_FFEXAcsRBNS-1" value="STOP" style="strokeWidth=2;html=1;shape=mxgraph.flowchart.terminator;whiteSpace=wrap;" vertex="1" parent="WIyWlLk6GJQsqaUBKTNV-1">
          <mxGeometry x="350" y="700" width="100" height="60" as="geometry" />
        </mxCell>
        <mxCell id="lRI2vzpQ_FFEXAcsRBNS-17" style="edgeStyle=orthogonalEdgeStyle;rounded=0;orthogonalLoop=1;jettySize=auto;html=1;entryX=0.5;entryY=0;entryDx=0;entryDy=0;" edge="1" parent="WIyWlLk6GJQsqaUBKTNV-1" source="lRI2vzpQ_FFEXAcsRBNS-2" target="lRI2vzpQ_FFEXAcsRBNS-3">
          <mxGeometry relative="1" as="geometry" />
        </mxCell>
        <mxCell id="lRI2vzpQ_FFEXAcsRBNS-2" value="OUTPUT&lt;br&gt;&quot;Please enter a&amp;nbsp;&lt;br&gt;positive whole number&lt;br&gt;greater than 0&quot;" style="shape=parallelogram;perimeter=parallelogramPerimeter;whiteSpace=wrap;html=1;fixedSize=1;" vertex="1" parent="WIyWlLk6GJQsqaUBKTNV-1">
          <mxGeometry x="325" y="160" width="150" height="80" as="geometry" />
        </mxCell>
        <mxCell id="lRI2vzpQ_FFEXAcsRBNS-18" style="edgeStyle=orthogonalEdgeStyle;rounded=0;orthogonalLoop=1;jettySize=auto;html=1;entryX=0.5;entryY=0;entryDx=0;entryDy=0;" edge="1" parent="WIyWlLk6GJQsqaUBKTNV-1" source="lRI2vzpQ_FFEXAcsRBNS-3" target="lRI2vzpQ_FFEXAcsRBNS-4">
          <mxGeometry relative="1" as="geometry" />
        </mxCell>
        <mxCell id="lRI2vzpQ_FFEXAcsRBNS-3" value="INPUT&lt;br&gt;n" style="shape=parallelogram;perimeter=parallelogramPerimeter;whiteSpace=wrap;html=1;fixedSize=1;" vertex="1" parent="WIyWlLk6GJQsqaUBKTNV-1">
          <mxGeometry x="325" y="280" width="150" height="80" as="geometry" />
        </mxCell>
        <mxCell id="lRI2vzpQ_FFEXAcsRBNS-9" style="edgeStyle=orthogonalEdgeStyle;rounded=0;orthogonalLoop=1;jettySize=auto;html=1;exitX=0.5;exitY=1;exitDx=0;exitDy=0;entryX=0.5;entryY=0;entryDx=0;entryDy=0;entryPerimeter=0;" edge="1" parent="WIyWlLk6GJQsqaUBKTNV-1" source="lRI2vzpQ_FFEXAcsRBNS-4" target="lRI2vzpQ_FFEXAcsRBNS-6">
          <mxGeometry relative="1" as="geometry" />
        </mxCell>
        <mxCell id="lRI2vzpQ_FFEXAcsRBNS-4" value="count = 0" style="rounded=0;whiteSpace=wrap;html=1;" vertex="1" parent="WIyWlLk6GJQsqaUBKTNV-1">
          <mxGeometry x="340" y="400" width="120" height="40" as="geometry" />
        </mxCell>
        <mxCell id="lRI2vzpQ_FFEXAcsRBNS-5" style="edgeStyle=orthogonalEdgeStyle;rounded=0;orthogonalLoop=1;jettySize=auto;html=1;exitX=0.5;exitY=1;exitDx=0;exitDy=0;" edge="1" parent="WIyWlLk6GJQsqaUBKTNV-1" source="lRI2vzpQ_FFEXAcsRBNS-4" target="lRI2vzpQ_FFEXAcsRBNS-4">
          <mxGeometry relative="1" as="geometry" />
        </mxCell>
        <mxCell id="lRI2vzpQ_FFEXAcsRBNS-7" style="edgeStyle=orthogonalEdgeStyle;rounded=0;orthogonalLoop=1;jettySize=auto;html=1;entryX=0.5;entryY=0;entryDx=0;entryDy=0;entryPerimeter=0;" edge="1" parent="WIyWlLk6GJQsqaUBKTNV-1" source="lRI2vzpQ_FFEXAcsRBNS-6" target="lRI2vzpQ_FFEXAcsRBNS-1">
          <mxGeometry relative="1" as="geometry" />
        </mxCell>
        <mxCell id="lRI2vzpQ_FFEXAcsRBNS-11" style="edgeStyle=orthogonalEdgeStyle;rounded=0;orthogonalLoop=1;jettySize=auto;html=1;" edge="1" parent="WIyWlLk6GJQsqaUBKTNV-1" source="lRI2vzpQ_FFEXAcsRBNS-6" target="lRI2vzpQ_FFEXAcsRBNS-10">
          <mxGeometry relative="1" as="geometry" />
        </mxCell>
        <mxCell id="lRI2vzpQ_FFEXAcsRBNS-6" value="if count == n" style="strokeWidth=2;html=1;shape=mxgraph.flowchart.decision;whiteSpace=wrap;" vertex="1" parent="WIyWlLk6GJQsqaUBKTNV-1">
          <mxGeometry x="340" y="480" width="120" height="120" as="geometry" />
        </mxCell>
        <mxCell id="lRI2vzpQ_FFEXAcsRBNS-8" value="true" style="text;html=1;align=center;verticalAlign=middle;resizable=0;points=[];autosize=1;strokeColor=none;fillColor=none;" vertex="1" parent="WIyWlLk6GJQsqaUBKTNV-1">
          <mxGeometry x="400" y="600" width="40" height="20" as="geometry" />
        </mxCell>
        <mxCell id="lRI2vzpQ_FFEXAcsRBNS-14" style="edgeStyle=orthogonalEdgeStyle;rounded=0;orthogonalLoop=1;jettySize=auto;html=1;entryX=0.5;entryY=0;entryDx=0;entryDy=0;" edge="1" parent="WIyWlLk6GJQsqaUBKTNV-1" source="lRI2vzpQ_FFEXAcsRBNS-10" target="lRI2vzpQ_FFEXAcsRBNS-13">
          <mxGeometry relative="1" as="geometry" />
        </mxCell>
        <mxCell id="lRI2vzpQ_FFEXAcsRBNS-10" value="count = count + 1" style="rounded=0;whiteSpace=wrap;html=1;" vertex="1" parent="WIyWlLk6GJQsqaUBKTNV-1">
          <mxGeometry x="520" y="520" width="120" height="40" as="geometry" />
        </mxCell>
        <mxCell id="lRI2vzpQ_FFEXAcsRBNS-12" value="false" style="text;html=1;align=center;verticalAlign=middle;resizable=0;points=[];autosize=1;strokeColor=none;fillColor=none;" vertex="1" parent="WIyWlLk6GJQsqaUBKTNV-1">
          <mxGeometry x="460" y="510" width="40" height="20" as="geometry" />
        </mxCell>
        <mxCell id="lRI2vzpQ_FFEXAcsRBNS-15" style="edgeStyle=orthogonalEdgeStyle;rounded=0;orthogonalLoop=1;jettySize=auto;html=1;" edge="1" parent="WIyWlLk6GJQsqaUBKTNV-1" source="lRI2vzpQ_FFEXAcsRBNS-13">
          <mxGeometry relative="1" as="geometry">
            <mxPoint x="400" y="460" as="targetPoint" />
            <Array as="points">
              <mxPoint x="680" y="640" />
              <mxPoint x="680" y="460" />
            </Array>
          </mxGeometry>
        </mxCell>
        <mxCell id="lRI2vzpQ_FFEXAcsRBNS-13" value="OUTPUT&lt;br&gt;count" style="shape=parallelogram;perimeter=parallelogramPerimeter;whiteSpace=wrap;html=1;fixedSize=1;" vertex="1" parent="WIyWlLk6GJQsqaUBKTNV-1">
          <mxGeometry x="505" y="600" width="150" height="80" as="geometry" />
        </mxCell>
      </root>
    </mxGraphModel>
  </diagram>
</mxfile>
